#!OML:ASF H:\LiuWeirdWalks\Patient Classification 1\Patient 1\Session 1\male.ASF
:FULLY-SPECIFIED
:DEGREES
479
root 1.24809 18.0303 -14.0374 6.33652 -3.6345 -5.07904
lowerback 1.37372 -0.0269024 3.65127
upperback -1.69449 0.130545 3.3106
thorax -2.51423 0.0291534 1.35353
lowerneck -14.8625 0.0795387 4.85852
upperneck 21.3073 0.220449 -5.6791
head 9.14687 -0.130871 -2.74111
rclavicle 1.61513e-015 -2.62396e-014
rhumerus -40.2212 -12.7234 -73.3764
rradius 26.7977
rwrist -4.57488
rhand -16.5004 -3.98892
rfingers 7.12502
rthumb 9.71737 -33.7448
lclavicle 1.61513e-015 -2.62396e-014
lhumerus -38.5645 1.44813 84.4775
lradius 32.6614
lwrist 9.42061
lhand -13.3954 -0.830843
lfingers 7.12502
lthumb 12.712 28.7622
rfemur 22.9653 5.21319 24.0005
rtibia -3.81667e-014
rfoot 5.09742 -8.29378
rtoes -23.4775
lfemur -29.0724 3.63239 -15.8721
ltibia 30.8264
lfoot -2.59941 10.5653
ltoes -4.57756
480
root 1.27552 18.0353 -13.961 6.3939 -3.48088 -4.90596
lowerback 1.37347 0.00834356 3.58423
upperback -1.69436 0.174235 3.22946
thorax -2.51345 0.0514963 1.30573
lowerneck -14.8193 0.0711372 4.84237
upperneck 21.2524 0.227809 -5.73979
head 9.12014 -0.134672 -2.75688
rclavicle -1.36416e-014 -5.56597e-015
rhumerus -40.1042 -12.7504 -73.4948
rradius 26.807
rwrist -4.63953
rhand -16.53 -4.03769
rfingers 7.12502
rthumb 9.68888 -33.7948
lclavicle -1.36416e-014 -5.56597e-015
lhumerus -38.4743 1.23509 84.5556
lradius 33.1523
lwrist 9.70018
lhand -13.5025 -0.925492
lfingers 7.12502
lthumb 12.6088 28.674
rfemur 23.0763 5.06389 23.7012
rtibia 8.26944e-014
rfoot 5.56047 -8.19237
rtoes -23.7087
lfemur -28.9161 3.58412 -16.203
ltibia 30.8585
lfoot -2.92488 10.4781
ltoes -4.59647
481
root 1.30314 18.0403 -13.8854 6.46811 -3.32213 -4.74934
lowerback 1.36175 0.0456248 3.54023
upperback -1.70169 0.221007 3.15374
thorax -2.51388 0.0749414 1.2506
lowerneck -14.7814 0.0522073 4.86933
upperneck 21.1676 0.222278 -5.85978
head 9.0832 -0.147535 -2.80136
rclavicle -3.57812e-015 1.63003e-014
rhumerus -39.9855 -12.7631 -73.6177
rradius 26.8234
rwrist -4.70594
rhand -16.5522 -4.05723
rfingers 7.12502
rthumb 9.66738 -33.8154
lclavicle -3.57812e-015 1.63003e-014
lhumerus -38.3914 1.01357 84.6415
lradius 33.6592
lwrist 10.012
lhand -13.6346 -1.00494
lfingers 7.12502
lthumb 12.4814 28.6023
rfemur 23.1659 4.91128 23.4191
rtibia 3.81667e-014
rfoot 6.04055 -8.09907
rtoes -23.8697
lfemur -28.7783 3.51685 -16.5142
ltibia 30.8898
lfoot -3.25585 10.4202
ltoes -4.55425
482
root 1.3308 18.0451 -13.8105 6.54513 -3.15321 -4.59688
lowerback 1.34468 0.0804098 3.5075
upperback -1.70943 0.264428 3.07752
thorax -2.51165 0.0965182 1.18882
lowerneck -14.8097 0.0487533 4.91383
upperneck 21.0894 0.235947 -5.99946
head 9.06208 -0.152878 -2.85409
rclavicle -2.90723e-015 -7.95139e-015
rhumerus -39.8461 -12.7919 -73.7399
rradius 26.8234
rwrist -4.73953
rhand -16.5733 -4.06897
rfingers 7.12502
rthumb 9.64704 -33.8281
lclavicle -2.90723e-015 -7.95139e-015
lhumerus -38.3133 0.790197 84.7243
lradius 34.1855
lwrist 10.3361
lhand -13.7564 -1.07036
lfingers 7.12502
lthumb 12.364 28.544
rfemur 23.251 4.74864 23.1423
rtibia -6.36111e-014
rfoot 6.52751 -8.01122
rtoes -23.9547
lfemur -28.6451 3.42654 -16.8179
ltibia 30.9212
lfoot -3.58391 10.3865
ltoes -4.47211
483
root 1.35838 18.0496 -13.7367 6.62798 -2.96887 -4.45433
lowerback 1.33462 0.113347 3.48656
upperback -1.72736 0.306642 3.00473
thorax -2.52381 0.117099 1.12409
lowerneck -14.8493 0.0544587 4.96779
upperneck 21.0247 0.262479 -6.15032
head 9.04856 -0.152751 -2.91116
rclavicle 1.04859e-014 -3.49861e-014
rhumerus -39.7185 -12.8021 -73.8642
rradius 26.835
rwrist -4.77148
rhand -16.5884 -4.08146
rfingers 7.12502
rthumb 9.6325 -33.8412
lclavicle 1.04859e-014 -3.49861e-014
lhumerus -38.2558 0.571275 84.8061
lradius 34.7363
lwrist 10.6807
lhand -13.8605 -1.09001
lfingers 7.12502
lthumb 12.2636 28.5304
rfemur 23.3275 4.5714 22.8772
rtibia 5.725e-014
rfoot 7.02738 -7.92941
rtoes -23.9746
lfemur -28.5241 3.31357 -17.1076
ltibia 30.9536
lfoot -3.90485 10.3742
ltoes -4.35224
484
root 1.38588 18.0541 -13.6637 6.71348 -2.7839 -4.31008
lowerback 1.32474 0.145869 3.46306
upperback -1.74621 0.348295 2.93338
thorax -2.53696 0.137438 1.06233
lowerneck -14.9053 0.0587114 4.9935
upperneck 21.0036 0.287998 -6.27212
head 9.05315 -0.152411 -2.95469
rclavicle -1.02126e-014 -2.38542e-015
rhumerus -39.5854 -12.7709 -74.0103
rradius 26.8707
rwrist -4.8224
rhand -16.5827 -4.08841
rfingers 7.12502
rthumb 9.63794 -33.8479
lclavicle -1.02126e-014 -2.38542e-015
lhumerus -38.2097 0.372293 84.8811
lradius 35.3009
lwrist 10.9881
lhand -13.9624 -1.14151
lfingers 7.12502
lthumb 12.1653 28.4848
rfemur 23.397 4.39312 22.6088
rtibia 3.18055e-014
rfoot 7.54595 -7.83309
rtoes -23.9859
lfemur -28.4059 3.17609 -17.3947
ltibia 30.9851
lfoot -4.19382 10.3879
ltoes -4.25581
485
root 1.41333 18.0583 -13.5914 6.7935 -2.58907 -4.1679
lowerback 1.30953 0.1774 3.4472
upperback -1.75709 0.388121 2.86124
thorax -2.53879 0.156865 0.995548
lowerneck -14.9966 0.0599769 4.96071
upperneck 21.0525 0.31031 -6.33015
head 9.08836 -0.151833 -2.96863
rclavicle -6.33626e-015 -3.26007e-014
rhumerus -39.4344 -12.7439 -74.1595
rradius 26.9038
rwrist -4.85822
rhand -16.564 -4.08571
rfingers 7.12502
rthumb 9.65602 -33.8444
lclavicle -6.33626e-015 -3.26007e-014
lhumerus -38.1607 0.186035 84.9498
lradius 35.8815
lwrist 11.2736
lhand -14.0562 -1.16902
lfingers 7.12502
lthumb 12.0749 28.4626
rfemur 23.4693 4.20463 22.3433
rtibia 6.67916e-014
rfoot 8.08003 -7.72212
rtoes -23.9932
lfemur -28.2833 3.02015 -17.6757
ltibia 31.0158
lfoot -4.45868 10.4128
ltoes -4.18509
486
root 1.4403 18.0622 -13.52 6.86788 -2.37984 -4.03575
lowerback 1.30567 0.20516 3.43326
upperback -1.76859 0.423828 2.79815
thorax -2.54769 0.174211 0.937158
lowerneck -15.0546 0.058881 4.91126
upperneck 21.1227 0.333683 -6.37893
head 9.12482 -0.150704 -2.97659
rclavicle -5.36719e-015 -2.38542e-015
rhumerus -39.2969 -12.6483 -74.3297
rradius 26.9832
rwrist -4.93291
rhand -16.5265 -4.07006
rfingers 7.12502
rthumb 9.69217 -33.8271
lclavicle -5.36719e-015 -2.38542e-015
lhumerus -38.124 0.0133472 85.0223
lradius 36.4775
lwrist 11.538
lhand -14.1451 -1.15614
lfingers 7.12502
lthumb 11.9892 28.4805
rfemur 23.546 4.00191 22.0918
rtibia 4.13472e-014
rfoot 8.62072 -7.60038
rtoes -24.0033
lfemur -28.1566 2.85138 -17.9406
ltibia 31.0436
lfoot -4.70065 10.4384
ltoes -4.13108
487
root 1.46703 18.0659 -13.4493 6.94526 -2.17708 -3.92248
lowerback 1.30256 0.237234 3.4347
upperback -1.77747 0.465798 2.74445
thorax -2.55419 0.194513 0.879633
lowerneck -15.132 0.0623135 4.86251
upperneck 21.1995 0.364878 -6.43603
head 9.16777 -0.147092 -2.98701
rclavicle -7.72775e-015 -2.18663e-014
rhumerus -39.139 -12.5415 -74.4993
rradius 27.063
rwrist -4.99892
rhand -16.49 -4.06355
rfingers 7.12502
rthumb 9.72743 -33.8189
lclavicle -7.72775e-015 -2.18663e-014
lhumerus -38.0919 -0.152136 85.1037
lradius 37.0816
lwrist 11.7714
lhand -14.2789 -1.12551
lfingers 7.12502
lthumb 11.8601 28.5186
rfemur 23.6114 3.80646 21.8604
rtibia 8.5875e-014
rfoot 9.17959 -7.46581
rtoes -24.0311
lfemur -28.0312 2.67955 -18.1808
ltibia 31.0698
lfoot -4.9271 10.4778
ltoes -4.08409
488
root 1.49325 18.0694 -13.379 7.0131 -1.96895 -3.81087
lowerback 1.29362 0.272604 3.43578
upperback -1.77588 0.511388 2.69164
thorax -2.5465 0.216849 0.823114
lowerneck -15.2081 0.0699824 4.83912
upperneck 21.2239 0.400118 -6.51983
head 9.19266 -0.142451 -3.00928
rclavicle -7.47927e-015 1.82882e-014
rhumerus -38.987 -12.3955 -74.6869
rradius 27.1901
rwrist -5.10986
rhand -16.4535 -4.09069
rfingers 7.12502
rthumb 9.76267 -33.8444
lclavicle -7.47927e-015 1.82882e-014
lhumerus -38.0448 -0.325757 85.1933
lradius 37.6805
lwrist 11.9916
lhand -14.4271 -1.07533
lfingers 7.12502
lthumb 11.7173 28.577
rfemur 23.6832 3.60475 21.6335
rtibia -5.40694e-014
rfoot 9.76 -7.31602
rtoes -24.0506
lfemur -27.8927 2.49643 -18.4138
ltibia 31.093
lfoot -5.14315 10.5267
ltoes -4.04439
489
root 1.51902 18.0726 -13.3091 7.07648 -1.75867 -3.71358
lowerback 1.28822 0.313263 3.44741
upperback -1.7784 0.564801 2.64438
thorax -2.54486 0.242852 0.766153
lowerneck -15.2844 0.0631535 4.83498
upperneck 21.2266 0.416601 -6.63408
head 9.20888 -0.148388 -3.04717
rclavicle -7.20594e-016 -1.82882e-014
rhumerus -38.8463 -12.2399 -74.8682
rradius 27.3313
rwrist -5.23167
rhand -16.4226 -4.11767
rfingers 7.12502
rthumb 9.79247 -33.87
lclavicle -7.20594e-016 -1.82882e-014
lhumerus -38.0147 -0.508291 85.2946
lradius 38.284
lwrist 12.218
lhand -14.5732 -1.00253
lfingers 7.12502
lthumb 11.5763 28.6577
rfemur 23.7552 3.40135 21.4241
rtibia 1.24042e-013
rfoot 10.3676 -7.15817
rtoes -24.0368
lfemur -27.7473 2.31664 -18.6289
ltibia 31.1127
lfoot -5.35392 10.5782
ltoes -4.00034
490
root 1.54467 18.0757 -13.2391 7.13754 -1.56173 -3.61675
lowerback 1.27157 0.360967 3.45415
upperback -1.779 0.626838 2.59989
thorax -2.53475 0.273385 0.714573
lowerneck -15.3771 0.0565415 4.81579
upperneck 21.2471 0.435355 -6.73944
head 9.23454 -0.153811 -3.0798
rclavicle 1.14798e-014 -1.82882e-014
rhumerus -38.706 -12.0547 -75.0553
rradius 27.4959
rwrist -5.39153
rhand -16.4028 -4.17348
rfingers 7.12502
rthumb 9.81157 -33.9249
lclavicle 1.14798e-014 -1.82882e-014
lhumerus -37.9935 -0.687687 85.4041
lradius 38.8833
lwrist 12.4463
lhand -14.7302 -0.969295
lfingers 7.12502
lthumb 11.4249 28.6994
rfemur 23.826 3.211 21.2126
rtibia -6.99722e-014
rfoot 11.0021 -6.98128
rtoes -23.9829
lfemur -27.5918 2.12493 -18.8408
ltibia 31.1259
lfoot -5.55232 10.6629
ltoes -3.94957
